<?xml version="1.0" encoding="utf-8"?>
<!-- Generator: Adobe Illustrator 24.3.0, SVG Export Plug-In . SVG Version: 6.00 Build 0)  -->
<svg version="1.1" id="Layer_1" xmlns="http://www.w3.org/2000/svg" xmlns:xlink="http://www.w3.org/1999/xlink" x="0px" y="0px"
	 viewBox="0 0 1024 1024" style="enable-background:new 0 0 1024 1024;" xml:space="preserve">
<style type="text/css">
	.st0{opacity:0.3;}
	.st1{fill:#FFFFFF;}
</style>
<g id="XMLID_45_" class="st0">
	<path id="XMLID_355_" class="st1" d="M299.6,289.8c0-117.1,95.3-212.4,212.4-212.4s212.4,95.3,212.4,212.4S629.1,502.2,512,502.2
		C394.9,502.2,299.6,406.9,299.6,289.8z"/>
	<path id="XMLID_356_" class="st1" d="M881.2,755.6v159.2c0,17.6-14.3,31.9-31.9,31.9H174.7c-17.6,0-31.9-14.3-31.9-31.9V755.6
		c0-59.3,23.1-115.1,65-157.1c42-42,97.7-65.1,157.1-65.2h4l3.5,2c42.3,24.1,90.6,36.9,139.6,36.9s97.3-12.8,139.6-36.9l3.5-2h4
		c59.3,0,115.1,23.2,157.1,65.2C858.1,640.5,881.2,696.3,881.2,755.6z"/>
</g>
<g id="XMLID_1_">
</g>
<g id="XMLID_2_">
</g>
<g id="XMLID_3_">
</g>
<g id="XMLID_4_">
</g>
<g id="XMLID_5_">
</g>
</svg>
